# xmcd
# Track frame offsets:
# 150
# 16082
# 34402
#
# Disc length: 681 seconds
# Revision: 0
# Processed by: cddbd v1.4PL0 Copyright (c) Steve Scherf et al.
# Submitted via: VisiTrax 2.9.5.181 - For more info visit www.synapsa.com
#
DISCID=1a02a703
DTITLE=Nail, Jimmy - Cowboy Dreams (Single)
DYEAR=1995
DGENRE=
TTITLE0=Cowboy Dreams
TTITLE1=Don't wanna go home (Jed's Demo)
TTITLE2=Bitter and twisted (Jed's Demo)
EXTD=
EXTT0=
EXTT1=
EXTT2=
PLAYORDER=
